<svg xmlns="http://www.w3.org/2000/svg">

    <symbol id="phone" viewBox="0 0 15 0">  
        <g transform="translate(0.000000,170.000000) scale(0.100000,-0.100000)"
fill="#ffffff" stroke="ffffff">
<path d="M823 1459 c-34 -34 -6 -69 55 -69 115 0 252 -61 348 -155 97 -96 150
-207 163 -339 7 -76 25 -101 59 -80 21 14 20 97 -3 188 -52 204 -227 381 -436
440 -82 23 -171 30 -186 15z" / fill="currentColor">
<path d="M442 1348 c-261 -80 -219 -461 86 -780 313 -328 730 -399 816 -140
32 95 30 96 -134 163 -80 32 -151 58 -159 59 -8 0 -40 -25 -72 -55 -32 -30
-66 -55 -77 -55 -30 0 -136 75 -211 149 -73 73 -151 182 -151 213 0 11 25 45
55 77 30 32 55 64 55 72 -1 27 -117 302 -131 309 -8 4 -42 -1 -77 -12z" / fill="currentColor">
<path d="M814 1307 c-15 -39 -1 -50 80 -64 190 -32 317 -160 349 -350 12 -77
13 -78 42 -78 l30 0 -1 70 c-5 218 -197 413 -426 432 -56 5 -69 3 -74 -10z" / fill="currentColor">
<path d="M818 1164 c-5 -4 -8 -18 -8 -30 0 -18 7 -25 28 -29 82 -16 116 -28
151 -51 64 -42 92 -94 116 -216 4 -21 11 -28 30 -28 34 0 43 23 33 88 -16 103
-83 194 -180 243 -43 22 -157 38 -170 23z" / fill="currentColor">
</g>
    </symbol>
    <symbol id="area" viewBox="0 0 24 24">
        <g clip-path="url(#a)" fill="#374957"><path d="M21 24h-5v-2h5a1 1 0 0 0 1-1v-5h2v5a3 3 0 0 1-3 3ZM2 8H0V3a3 3 0 0 1 3-3h5v2H3a1 1 0 0 0-1 1v5ZM8 24H3a3 3 0 0 1-3-3v-5h2v5a1 1 0 0 0 1 1h5v2ZM24 8h-2V3a1 1 0 0 0-1-1h-5V0h5a3 3 0 0 1 3 3v5Z"/></g><defs><clipPath id="a"><path fill="#fff" d="M0 0h24v24H0z"/></clipPath></defs>
   </symbol>

   <symbol id="floors" viewBox="0 0 24 24">
        <g clip-path="url(#a)"><path d="M4 13h3v2H4v-2Zm5 2h3v-2H9v2Zm-5 4h3v-2H4v2Zm5 0h3v-2H9v2ZM4 7h3V5H4v2Zm5 0h3V5H9v2Zm-5 4h3V9H4v2Zm5 0h3V9H9v2Zm15-3v16H0V3a3 3 0 0 1 3-3h10a3 3 0 0 1 3 3v2h5a3 3 0 0 1 3 3ZM14 3a1 1 0 0 0-1-1H3a1 1 0 0 0-1 1v19h12V3Zm8 5a1 1 0 0 0-1-1h-5v15h6V8Zm-4 7h2v-2h-2v2Zm0 4h2v-2h-2v2Zm0-8h2V9h-2v2Z" fill="#374957"/></g><defs><clipPath id="a"><path fill="#fff" d="M0 0h24v24H0z"/></clipPath></defs>
    </symbol>

    <symbol id="land-area" viewBox="0 0 24 24">
        <g clip-path="url(#a)" fill="#374957"><path d="M8 0H3a3 3 0 0 0-3 3v5h3l-.02 3 2 .01L5 8h3V4.98L11 5l.01-2L8 2.98V0ZM6 6H2V3a1 1 0 0 1 1-1h3v4ZM21 0h-5v3l-3-.02v2L16 5v3h3.02L19 11l2 .01.02-3.01H24V3a3 3 0 0 0-3-3Zm1 6h-4V2h3a1 1 0 0 1 1 1v3ZM21.02 13h-2L19 16h-3v3.02L13 19v2l3 .02V24h5a3 3 0 0 0 3-3v-5h-3l.02-3Zm.98 8a1 1 0 0 1-1 1h-3v-4h4v3ZM8 16H4.99L5 13H3l-.02 3H0v5a3 3 0 0 0 3 3h5v-3l3 .02.01-2L8 19v-3Zm-2 6H3a1 1 0 0 1-1-1v-3h4v4Z"/></g><defs><clipPath id="a"><path fill="#fff" d="M0 0h24v24H0z"/></clipPath></defs>
    </symbol>
    
    <symbol id="bbq" viewBox="0 0 24 24">
        <g clip-path="url(#a)"><path d="M10 0h2v9a3 3 0 0 1-3 3H8v12H6V12H5a3 3 0 0 1-3-3V0h2v9a1 1 0 0 0 1 1h1V0h2v10h1a1 1 0 0 0 1-1V0Zm12 9.27c0 4.67-3.88 9.19-5 10.4V24h-2V2A2 2 0 0 1 18.6.81C20.17 2.9 22 6.04 22 9.27Zm-5 7.26C20.9 11.5 20.92 7.05 17 2v14.52Z" fill="#374957"/></g><defs><clipPath id="a"><path fill="#fff" d="M0 0h24v24H0z"/></clipPath></defs>
    </symbol>

    <symbol id="bedroom" viewBox="0 0 24 24">
        <g clip-path="url(#a)"><path d="M21 6H11a3 3 0 0 0-2.94 2.39 3.45 3.45 0 0 0-4.03.63A3.5 3.5 0 0 0 3.35 13H2V2H0v20h2v-3h20v3h2V9a3 3 0 0 0-3-3ZM10 9a1 1 0 0 1 1-1h10a1 1 0 0 1 1 1v4H10V9Zm-5 2.5a1.5 1.5 0 1 1 3 0 1.5 1.5 0 0 1-3 0ZM2 17v-2h20v2H2Z" fill="#374957"/></g><defs><clipPath id="a"><path fill="#fff" d="M0 0h24v24H0z"/></clipPath></defs>
    </symbol>

    <symbol id="parking" viewBox="0 0 24 24">
        <g clip-path="url(#a)"><path d="M20.42 2.98A3 3 0 0 0 17.6 1H6.4a3 3 0 0 0-2.82 1.98L1.44 8.87A23.79 23.79 0 0 0 0 17.03V19h2v4h6v-4h8v4h6v-4h2v-1.97c0-2.78-.48-5.55-1.44-8.16l-2.14-5.9Zm-14.96.68A1 1 0 0 1 6.4 3h11.2a1 1 0 0 1 .94.66l2.14 5.9c.18.48.32.96.46 1.45H2.86c.14-.49.28-.97.46-1.45l2.14-5.9ZM6 21H4v-2h2v2Zm14 0h-2v-2h2v2ZM2 17c0-1.34.13-2.68.38-4H4v1a1 1 0 1 0 2 0v-1h12v1a1 1 0 1 0 2 0v-1h1.62c.25 1.32.38 2.66.38 4H2Z" fill="#374957"/></g><defs><clipPath id="a"><path fill="#fff" d="M0 0h24v24H0z"/></clipPath></defs>
    </symbol>

    <symbol id="communications" viewBox="0 0 60 60">
        <path d="M48.4 1.8C46.1 3.4 44 7.7 44 11l-.1 3.5-1.9-2.3-1.9-2.2-1.5 2.2c-.9 1.2-1.6 4.2-1.6 6.6 0 10.5 13.7 14.4 18.5 5.2 2.5-4.9 2-7.5-2.9-14.4-1-1.5-2.1-4-2.5-5.6-.4-1.8-1-2.7-1.7-2.2zm.6 3.5c0 .8 1.4 3.4 3.2 5.8 5.7 7.8 3.7 15.2-4.5 16.6-3.1.5-4 .1-6.8-2.6-2.8-2.8-3.1-3.7-2.6-7.2.7-5.1 1.2-5.6 3.5-3.6 2.1 1.9 3.2 1.3 3.2-1.8 0-3 2-8.5 3.1-8.5.5 0 .9.6.9 1.3z"/><path d="M53.2 19.9c-.7 1.8-.7 3.1-.2 3.1 1.1 0 2.5-4.8 1.7-5.6-.2-.3-.9.9-1.5 2.5zM16.4 3.1c-.3.6-.1 1.6.5 2.2 1.9 1.9 1.3 8.2-1.1 11.2-2.1 2.7-2.4 2.7-9 2.2L0 18.1v4.4c0 4.6 1.4 6.5 3.3 4.6.6-.6 3.5-1.1 6.4-1.1 9 0 13.7-3.8 14.8-11.9.3-2.3.7-5.9 1-8.1l.5-4h-4.4c-2.5 0-4.8.5-5.2 1.1zm8.1.9c-.3.5-1.9 1-3.6 1-1.6 0-2.9-.5-2.9-1 0-.6 1.6-1 3.6-1 2.1 0 3.3.4 2.9 1zm-1.2 2.7c-.7.2-1.3.9-1.3 1.4 0 .6.5.7 1 .4.6-.4 1 .7.9 2.7-.1 4-1.1 7-2.4 6.9-.6 0-1 .6-1 1.5 0 2.7-4.4 5.4-8.6 5.4-2.1 0-3.9-.5-3.9-1 0-.6-.9-1-2-1s-2-.7-2-1.5C4 20.4 5.2 20 8.9 20c6.8 0 9.2-2.2 9.9-8.8.4-4.8.6-5.2 3.1-5.1 1.4 0 2 .3 1.4.6zM3 22.5c0 1.9-.4 3.5-1 3.5-.5 0-1-1.6-1-3.5S1.5 19 2 19c.6 0 1 1.6 1 3.5z"/><path d="M17.6 21.5c-1.1.8-1.5 1.5-.9 1.5s1.6-.7 2.3-1.5c1.6-1.9 1.1-1.9-1.4 0zM10.3 34.7c-1.5.6-1.7 3.3-.3 3.3.6 0 .1.9-1 2-1.2 1.2-3.3 2-5.5 2-3.1 0-3.5.3-3.5 2.5S.4 47 3.9 47c2.2 0 4.4.6 5.1 1.5 1.6 1.9 6.4 1.9 8 0 1.7-2.1 2.7-1.9 3.3.6.8 3.1 4.1 2.1 4.5-1.4.4-3.4-1.3-5.7-4.3-5.7-1.2 0-3-.9-4-2s-1.3-2-.7-2c2.1 0 1.2-2.8-1-3.4-2.6-.6-2.8-.6-4.5.1zm6.1 6.8c.8.8 2.3 1.5 3.3 1.5 1.1 0 2.4.5 3.1 1.2 1.7 1.7 1.5 4.8-.3 4.8-.8 0-1.5-.6-1.5-1.4 0-2.6-2.1-2.9-4.4-.7-2.8 2.6-4.8 2.7-7.1.1-1.2-1.3-2.8-1.9-4.8-1.7-1.6.1-3.2-.3-3.4-.9-.2-.6.9-.9 2.6-.8 1.9.1 3.6-.5 4.7-1.7 2.1-2.3 5.7-2.5 7.8-.4zM43.7 35.6c-.4.4-.7 4.3-.7 8.6V52h17.1l-.3-8.3-.3-8.2-7.5-.3c-4.2-.1-7.9 0-8.3.4zM59 44v7H44V37h15v7z"/><path d="M47.7 39.8c-2 2.2-2.2 6.3-.5 8 1.7 1.7 6.4 1.5 8.2-.4 2.3-2.2 2-6-.6-7.8-2.9-2.1-5.1-2-7.1.2zm6.9 1.4c1.8 2.5 1 5.2-1.8 6.2-4.4 1.6-7.8-3-4.6-6.2 1.6-1.6 5.3-1.5 6.4 0z"/><path d="M49 44.1c0 .5.5.7 1 .4.6-.3 1-.8 1-1.1 0-.2-.4-.4-1-.4-.5 0-1 .5-1 1.1zM34.1 37.6c0 1.2-.8 2.4-1.6 2.8-2.5.9-1.9 6.3 1 8.2 1.4.9 2.5 2.5 2.5 3.5 0 3.3 3.9 4.9 12.2 4.9 10.6 0 9.9-1.9-.8-2.2-7.2-.2-8.9-.6-9.8-2.1-.9-1.6-.7-2.2 1.2-3.4 1.6-1.2 2.2-2.5 2.2-5.4 0-2.2-.4-3.9-.9-3.9s-1.2-1-1.4-2.3l-.4-2.2-.8 2.2C37.1 39 36.4 40 36 40c-.5 0-1.1-1-1.3-2.3-.4-2.1-.4-2.1-.6-.1zm5.7 6.6c-.3 2.9-.6 3.3-3.3 3.3-2.7 0-3-.4-3.3-3.3-.3-3.1-.2-3.2 3.3-3.2s3.6.1 3.3 3.2zM21 53.5c-1.5 1.8-.6 4.5 1.4 4.5s2.9-1.6 2.1-4c-.8-2.4-1.8-2.5-3.5-.5zm3 2.1c0 1.4-1.2 1.9-2.3.8-.9-.9.4-3.5 1.4-2.8.5.3.9 1.2.9 2z"/>
    </symbol>

    <symbol id="achievements" viewBox="0 0 60 60">
        <path d="M17 10.5v10.4l-2.9 1.6c-6.2 3.2-9.1 11-6 16.6.8 1.6.4 3.6-2.1 9.6-1.7 4.1-2.9 7.7-2.7 7.9.2.3 1.6 0 3.1-.6 2.3-.9 2.8-.7 3.8 1.5.6 1.4 1.4 2.5 1.8 2.5 1 0 5.2-10.8 4.8-12.1-.2-.7-1.4 1.2-2.7 4.2-1.9 4.5-2.4 5.1-3.2 3.6C10.3 54.8 9 54 8 54c-2.5 0-2.5-.6 0-6.4l2.1-4.6 2.9 1.5c1.6.8 3.8 1.5 5 1.5 1.4 0 2.5 1 3.4 3.3.8 1.7 2.1 5 3.1 7.2l1.6 4 1.8-2.4c1.4-1.8 2.5-2.3 4.5-1.9 2.4.5 2.7.3 2.2-1.6-.9-3.5-4.7-11.8-5.2-11.3-.3.2.4 2.9 1.6 5.8 1.1 3 2 5.5 2 5.6 0 0-.9-.1-2-.4-1.3-.4-2.6.1-3.4 1.2-1.1 1.5-1.5 1.1-3.5-3.6-1.4-3.4-1.8-5.5-1.1-5.7.6-.2 2.4-1.5 3.9-2.8 2.7-2.3 3.6-2.4 16.5-2.4H57V0H17v10.5zM36 6v4H19V2h17v4zm19 0v4H38V2h17v4zM26 16c0 3.9-.1 4-3.5 4s-3.5-.1-3.5-4 .1-4 3.5-4 3.5.1 3.5 4zm19.8-.3-.3 3.8h-17l-.3-3.8-.3-3.7h18.2l-.3 3.7zm9.2.4v4l-3.7-.3c-3.6-.3-3.8-.5-4.1-4.1l-.3-3.7H55v4.1zM36 25c0 3.6-.2 4-2.5 4-1.4 0-2.8-.7-3.2-1.5-.3-.9-2.2-2.7-4.2-4L22.5 21H36v4zm19 5.1v9l-3.7-.3c-3.6-.3-3.8-.5-4.1-4.1-.3-3.2 0-3.7 1.7-3.7 1.2 0 2.1-.5 2.1-1 0-.6-2.8-1-6.5-1H38v-8h17v9.1zm-30.1-5.7c3.2 1.7 5.1 5.4 5.1 9.9 0 3.9-2.1 7.2-6 9.2-3.9 2-6.6 1.9-10.6-.6-3.8-2.3-6.3-8.5-4.8-11.9.7-1.6.9-1.1.9 2.4 0 3.3.6 5.1 2.4 7 6.3 6.7 17 2.5 17.1-6.7 0-8.2-9.7-12.6-16.6-7.6l-2.9 2.1 2.8-2.6c3.2-3 8.2-3.4 12.6-1.2zm-.6 2.6c3.3 2.6 4.3 7 2.3 10.8-3.9 7.5-15.6 4.7-15.6-3.7 0-7.6 7.5-11.6 13.3-7.1zM46 35v4H31.2l.1-4 .2-4H46v4z"/><path d="M52 30c0 .5.5 1 1 1 .6 0 1-.5 1-1 0-.6-.4-1-1-1-.5 0-1 .4-1 1zM18 28c-.6 1.1-2.2 2.3-3.5 2.6-2.9.7-3.1 1.6-.9 3.5.9.7 1.4 2.2 1.1 3.6-.4 2.4 1.1 3.1 3 1.2.8-.8 1.7-.8 3.1 0 3 1.6 3.4 1.4 3-1.3-.1-1.3.4-3.1 1.2-4.1 1.3-1.6 1.3-1.9.1-2.3-.8-.3-2.5-1.5-3.8-2.8-2.2-2.2-2.3-2.2-3.3-.4zm4.5 4c1 0 1.1.5.2 2.5-.9 1.7-2 2.5-3.9 2.5s-2.6-.4-2.2-1.4c.3-.8 0-1.7-.6-2.1-.6-.4-.2-1.3 1.2-2.5 1.9-1.5 2.4-1.6 3.1-.4.4.8 1.4 1.4 2.2 1.4z"/>
    </symbol>

    <symbol id="advantages" viewBox="0 0 60 60">
        <path d="M23.6 3.5c-.3.8.1 2.1.9 2.9.8.8 1.5 2.2 1.5 3 0 1.3-1.5 1.6-9 1.6-8.9 0-9 0-9 2.5 0 1.4.5 2.5 1 2.5.6 0 1 3.5 1 8.4v8.5l-3.7.3-3.8.3-.3 9.4C2.1 48.1 1.4 53 .8 53.7c-.5.7-.8 2-.4 2.8.5 1.3 4.3 1.5 29.8 1.3 27.4-.3 29.3-.4 29.6-2.1.3-1.2-.4-2-1.7-2.4-2-.5-2.1-1.2-2.1-14.9 0-8.9-.4-14.4-1-14.4-.5 0-1 1.3-1 3 0 2-.5 3-1.5 3-1.1 0-1.5-1.1-1.5-4.3 0-6.5-.5-6.8-10.1-6.5l-8.4.3-.3 5.2c-.3 4.5-.6 5.3-2.3 5.3-1.8 0-1.9-.8-1.9-11.1 0-9 .3-11 1.4-10.6.7.3 6.6 2 13 3.8 10.5 3 11.6 3.5 11.6 5.6 0 1.3.5 2.3 1 2.3.6 0 1-.9 1-2 0-1.2.7-2 1.6-2 1 0 1.4-.7 1.2-2.2-.3-2-2.3-2.8-16.8-7C32.9 4.2 25.2 2 24.9 2c-.4 0-.9.7-1.3 1.5zm33.3 10.2c.3.3-.1.4-.9.1-.8-.2-7.9-2.2-15.7-4.4C32.4 7.3 26 5.3 26 4.9c0-.7 30.1 7.8 30.9 8.8zm-34.7 0c-2.3.2-6.1.2-8.5 0-2.3-.2-.4-.4 4.3-.4s6.6.2 4.2.4zm3.6 9.5c-.1 6.9-.1 7-.7 2.3l-.6-5h-8l-.3 4.7c-.3 4-.6 4.8-2.3 4.8-1.7 0-1.9-.7-1.9-7v-7h14l-.2 7.2zm23 2.5.3 4.3H34v-9.1l7.3.3 7.2.3.3 4.2zm-25.8.8c0 3.1-.3 3.5-2.5 3.5s-2.5-.4-2.5-3.5.3-3.5 2.5-3.5 2.5.4 2.5 3.5zm20.8 6.2c-6 .2-15.6.2-21.5 0-6-.1-1.1-.3 10.7-.3 11.8 0 16.7.2 10.8.3zM26 44.1c0 6.7-.3 9-1.2 8.7-.8-.3-1.1-2-1-4.6.6-7.7.1-8.2-8.8-8.2s-9.4.5-8.8 8.2c.1 2.6-.2 4.3-1 4.6-.9.3-1.2-2-1.2-8.7V35h22v9.1zm27.8.1c-.1 9-.2 9.1-.7 2.8l-.6-6.5h-8l-.3 6.2-.3 6.3H28V35h26l-.2 9.2zM21 43c0 .5-1.3 1-3 1-4 0-3.8 1.8.3 2.3 1.7.2.3.4-3.3.5-4.8.1-6.1-.1-5-.9 1.1-.8 1.2-1.2.3-1.6C7.2 43.1 9.5 42 15 42c3.3 0 6 .4 6 1zm30 2c0 1.1-.4 2-1 2-.5 0-1 .7-1 1.5s.5 1.5 1 1.5c.6 0 1 .7 1 1.5 0 .9-.9 1.5-2.5 1.5-2.3 0-2.5-.3-2.5-5s.2-5 2.5-5c1.8 0 2.5.5 2.5 2zm-30 5c0 .6-2.7 1-6 1s-6-.4-6-1 2.7-1 6-1 6 .4 6 1zm22.8 5.7c-7.6.2-20 .2-27.5 0-7.6-.1-1.4-.3 13.7-.3s21.3.2 13.8.3z"/><path d="M30.6 42.2c-.3.7-.7 2.8-1 4.5l-.5 3.3H43l-.6-3.3c-1-5.6-1.1-5.7-6.4-5.7-3.2 0-5.2.5-5.4 1.2zm9.2 3c-.2 1.9-.9 2.3-3.8 2.3s-3.6-.4-3.8-2.3c-.3-2 .1-2.2 3.8-2.2 3.7 0 4.1.2 3.8 2.2z"/>
    </symbol>

    <symbol id="check" viewBox="0 0 10 10">
        <path style="stroke:none;fill-rule:nonzero;fill:#374957;fill-opacity:1" d="M7.742188.890625 5.132812.0234375c-.085937-.03125-.179687-.03125-.265624 0L2.257812.890625c-.414062.140625-.777343.40625-1.03125.757813-.257812.355468-.394531.78125-.394531 1.21875V5c0 3.152344 3.835938 4.890625 4 4.964844C4.882812 9.988281 4.941406 10 5 10c.058594 0 .117188-.011719.167969-.035156.164062-.074219 4-1.8125 4-4.964844V2.867188c0-.4375-.136719-.863282-.394531-1.21875-.253907-.351563-.617188-.617188-1.03125-.757813ZM8.332031 5c0 2.273438-2.632812 3.765625-3.332031 4.121094C4.296875 8.765625 1.667969 7.277344 1.667969 5V2.867188c0-.261719.082031-.515626.234375-.730469.152344-.210938.371094-.371094.621094-.453125L5 .855469l2.476562.828125c.25.082031.46875.242187.621094.453125.152344.214843.234375.46875.234375.730469Zm0 0"/><path style="stroke:none;fill-rule:nonzero;fill:#374957;fill-opacity:1" d="m6.375 3.457031-1.746094 1.75-.933594-.972656c-.039062-.042969-.082031-.074219-.132812-.097656-.050781-.023438-.105469-.035157-.160156-.039063-.058594 0-.113282.007813-.164063.027344-.050781.019531-.097656.050781-.140625.089844-.039062.039062-.070312.085937-.09375.136718-.019531.050782-.03125.105469-.03125.160157-.003906.054687.007813.109375.03125.164062.019532.050781.050782.097657.089844.136719l.960938 1c.074218.074219.160156.136719.253906.179688.097656.042968.203125.066406.308594.070312h.011718c.105469 0 .207032-.019531.300782-.0625.097656-.039062.183593-.097656.257812-.167969l1.777344-1.78125c.039062-.039062.070312-.085937.089844-.136719.023437-.050781.035156-.105468.035156-.160156 0-.054687-.011719-.109375-.03125-.160156-.023438-.050781-.054688-.097656-.09375-.132812-.039063-.039063-.082032-.070313-.132813-.09375-.050781-.019532-.105469-.03125-.160156-.03125s-.109375.011718-.160156.03125c-.050781.023437-.097657.050781-.136719.089843Zm0 0"/>
    </symbol>

    <symbol id="close" viewBox="0 0 24 24">
        <path d="M18 5.99994C17.8125 5.81247 17.5582 5.70715 17.293 5.70715C17.0278 5.70715 16.7735 5.81247 16.586 5.99994L12 10.5859L7.414 5.99994C7.22647 5.81247 6.97217 5.70715 6.707 5.70715C6.44184 5.70715 6.18753 5.81247 6 5.99994C5.81253 6.18747 5.70721 6.44178 5.70721 6.70694C5.70721 6.9721 5.81253 7.22641 6 7.41394L10.586 11.9999L6 16.5859C5.81253 16.7735 5.70721 17.0278 5.70721 17.2929C5.70721 17.5581 5.81253 17.8124 6 17.9999C6.18753 18.1874 6.44184 18.2927 6.707 18.2927C6.97217 18.2927 7.22647 18.1874 7.414 17.9999L12 13.4139L16.586 17.9999C16.7735 18.1874 17.0278 18.2927 17.293 18.2927C17.5582 18.2927 17.8125 18.1874 18 17.9999C18.1875 17.8124 18.2928 17.5581 18.2928 17.2929C18.2928 17.0278 18.1875 16.7735 18 16.5859L13.414 11.9999L18 7.41394C18.1875 7.22641 18.2928 6.9721 18.2928 6.70694C18.2928 6.44178 18.1875 6.18747 18 5.99994Z" fill="none"/>
    </symbol>
</svg>