<svg version="1.0" xmlns="http://www.w3.org/2000/svg" width="80" height="80" viewBox="0 0 60 60"><path d="M17 10.5v10.4l-2.9 1.6c-6.2 3.2-9.1 11-6 16.6.8 1.6.4 3.6-2.1 9.6-1.7 4.1-2.9 7.7-2.7 7.9.2.3 1.6 0 3.1-.6 2.3-.9 2.8-.7 3.8 1.5.6 1.4 1.4 2.5 1.8 2.5 1 0 5.2-10.8 4.8-12.1-.2-.7-1.4 1.2-2.7 4.2-1.9 4.5-2.4 5.1-3.2 3.6C10.3 54.8 9 54 8 54c-2.5 0-2.5-.6 0-6.4l2.1-4.6 2.9 1.5c1.6.8 3.8 1.5 5 1.5 1.4 0 2.5 1 3.4 3.3.8 1.7 2.1 5 3.1 7.2l1.6 4 1.8-2.4c1.4-1.8 2.5-2.3 4.5-1.9 2.4.5 2.7.3 2.2-1.6-.9-3.5-4.7-11.8-5.2-11.3-.3.2.4 2.9 1.6 5.8 1.1 3 2 5.5 2 5.6 0 0-.9-.1-2-.4-1.3-.4-2.6.1-3.4 1.2-1.1 1.5-1.5 1.1-3.5-3.6-1.4-3.4-1.8-5.5-1.1-5.7.6-.2 2.4-1.5 3.9-2.8 2.7-2.3 3.6-2.4 16.5-2.4H57V0H17v10.5zM36 6v4H19V2h17v4zm19 0v4H38V2h17v4zM26 16c0 3.9-.1 4-3.5 4s-3.5-.1-3.5-4 .1-4 3.5-4 3.5.1 3.5 4zm19.8-.3-.3 3.8h-17l-.3-3.8-.3-3.7h18.2l-.3 3.7zm9.2.4v4l-3.7-.3c-3.6-.3-3.8-.5-4.1-4.1l-.3-3.7H55v4.1zM36 25c0 3.6-.2 4-2.5 4-1.4 0-2.8-.7-3.2-1.5-.3-.9-2.2-2.7-4.2-4L22.5 21H36v4zm19 5.1v9l-3.7-.3c-3.6-.3-3.8-.5-4.1-4.1-.3-3.2 0-3.7 1.7-3.7 1.2 0 2.1-.5 2.1-1 0-.6-2.8-1-6.5-1H38v-8h17v9.1zm-30.1-5.7c3.2 1.7 5.1 5.4 5.1 9.9 0 3.9-2.1 7.2-6 9.2-3.9 2-6.6 1.9-10.6-.6-3.8-2.3-6.3-8.5-4.8-11.9.7-1.6.9-1.1.9 2.4 0 3.3.6 5.1 2.4 7 6.3 6.7 17 2.5 17.1-6.7 0-8.2-9.7-12.6-16.6-7.6l-2.9 2.1 2.8-2.6c3.2-3 8.2-3.4 12.6-1.2zm-.6 2.6c3.3 2.6 4.3 7 2.3 10.8-3.9 7.5-15.6 4.7-15.6-3.7 0-7.6 7.5-11.6 13.3-7.1zM46 35v4H31.2l.1-4 .2-4H46v4z"/><path d="M52 30c0 .5.5 1 1 1 .6 0 1-.5 1-1 0-.6-.4-1-1-1-.5 0-1 .4-1 1zM18 28c-.6 1.1-2.2 2.3-3.5 2.6-2.9.7-3.1 1.6-.9 3.5.9.7 1.4 2.2 1.1 3.6-.4 2.4 1.1 3.1 3 1.2.8-.8 1.7-.8 3.1 0 3 1.6 3.4 1.4 3-1.3-.1-1.3.4-3.1 1.2-4.1 1.3-1.6 1.3-1.9.1-2.3-.8-.3-2.5-1.5-3.8-2.8-2.2-2.2-2.3-2.2-3.3-.4zm4.5 4c1 0 1.1.5.2 2.5-.9 1.7-2 2.5-3.9 2.5s-2.6-.4-2.2-1.4c.3-.8 0-1.7-.6-2.1-.6-.4-.2-1.3 1.2-2.5 1.9-1.5 2.4-1.6 3.1-.4.4.8 1.4 1.4 2.2 1.4z"/></svg>