<svg version="1.0" xmlns="http://www.w3.org/2000/svg" width="80" height="80" viewBox="0 0 60 60"><path d="M23.6 3.5c-.3.8.1 2.1.9 2.9.8.8 1.5 2.2 1.5 3 0 1.3-1.5 1.6-9 1.6-8.9 0-9 0-9 2.5 0 1.4.5 2.5 1 2.5.6 0 1 3.5 1 8.4v8.5l-3.7.3-3.8.3-.3 9.4C2.1 48.1 1.4 53 .8 53.7c-.5.7-.8 2-.4 2.8.5 1.3 4.3 1.5 29.8 1.3 27.4-.3 29.3-.4 29.6-2.1.3-1.2-.4-2-1.7-2.4-2-.5-2.1-1.2-2.1-14.9 0-8.9-.4-14.4-1-14.4-.5 0-1 1.3-1 3 0 2-.5 3-1.5 3-1.1 0-1.5-1.1-1.5-4.3 0-6.5-.5-6.8-10.1-6.5l-8.4.3-.3 5.2c-.3 4.5-.6 5.3-2.3 5.3-1.8 0-1.9-.8-1.9-11.1 0-9 .3-11 1.4-10.6.7.3 6.6 2 13 3.8 10.5 3 11.6 3.5 11.6 5.6 0 1.3.5 2.3 1 2.3.6 0 1-.9 1-2 0-1.2.7-2 1.6-2 1 0 1.4-.7 1.2-2.2-.3-2-2.3-2.8-16.8-7C32.9 4.2 25.2 2 24.9 2c-.4 0-.9.7-1.3 1.5zm33.3 10.2c.3.3-.1.4-.9.1-.8-.2-7.9-2.2-15.7-4.4C32.4 7.3 26 5.3 26 4.9c0-.7 30.1 7.8 30.9 8.8zm-34.7 0c-2.3.2-6.1.2-8.5 0-2.3-.2-.4-.4 4.3-.4s6.6.2 4.2.4zm3.6 9.5c-.1 6.9-.1 7-.7 2.3l-.6-5h-8l-.3 4.7c-.3 4-.6 4.8-2.3 4.8-1.7 0-1.9-.7-1.9-7v-7h14l-.2 7.2zm23 2.5.3 4.3H34v-9.1l7.3.3 7.2.3.3 4.2zm-25.8.8c0 3.1-.3 3.5-2.5 3.5s-2.5-.4-2.5-3.5.3-3.5 2.5-3.5 2.5.4 2.5 3.5zm20.8 6.2c-6 .2-15.6.2-21.5 0-6-.1-1.1-.3 10.7-.3 11.8 0 16.7.2 10.8.3zM26 44.1c0 6.7-.3 9-1.2 8.7-.8-.3-1.1-2-1-4.6.6-7.7.1-8.2-8.8-8.2s-9.4.5-8.8 8.2c.1 2.6-.2 4.3-1 4.6-.9.3-1.2-2-1.2-8.7V35h22v9.1zm27.8.1c-.1 9-.2 9.1-.7 2.8l-.6-6.5h-8l-.3 6.2-.3 6.3H28V35h26l-.2 9.2zM21 43c0 .5-1.3 1-3 1-4 0-3.8 1.8.3 2.3 1.7.2.3.4-3.3.5-4.8.1-6.1-.1-5-.9 1.1-.8 1.2-1.2.3-1.6C7.2 43.1 9.5 42 15 42c3.3 0 6 .4 6 1zm30 2c0 1.1-.4 2-1 2-.5 0-1 .7-1 1.5s.5 1.5 1 1.5c.6 0 1 .7 1 1.5 0 .9-.9 1.5-2.5 1.5-2.3 0-2.5-.3-2.5-5s.2-5 2.5-5c1.8 0 2.5.5 2.5 2zm-30 5c0 .6-2.7 1-6 1s-6-.4-6-1 2.7-1 6-1 6 .4 6 1zm22.8 5.7c-7.6.2-20 .2-27.5 0-7.6-.1-1.4-.3 13.7-.3s21.3.2 13.8.3z"/><path d="M30.6 42.2c-.3.7-.7 2.8-1 4.5l-.5 3.3H43l-.6-3.3c-1-5.6-1.1-5.7-6.4-5.7-3.2 0-5.2.5-5.4 1.2zm9.2 3c-.2 1.9-.9 2.3-3.8 2.3s-3.6-.4-3.8-2.3c-.3-2 .1-2.2 3.8-2.2 3.7 0 4.1.2 3.8 2.2z"/></svg>