<?xml version="1.0" encoding="UTF-8"?>
<svg xmlns="http://www.w3.org/2000/svg" xmlns:xlink="http://www.w3.org/1999/xlink" width="10px" height="10px" viewBox="0 0 10 10" version="1.1">
<g id="surface1">
<path style=" stroke:none;fill-rule:nonzero;fill:rgb(21.568627%,28.627451%,34.117647%);fill-opacity:1;" d="M 7.742188 0.890625 L 5.132812 0.0234375 C 5.046875 -0.0078125 4.953125 -0.0078125 4.867188 0.0234375 L 2.257812 0.890625 C 1.84375 1.03125 1.480469 1.296875 1.226562 1.648438 C 0.96875 2.003906 0.832031 2.429688 0.832031 2.867188 L 0.832031 5 C 0.832031 8.152344 4.667969 9.890625 4.832031 9.964844 C 4.882812 9.988281 4.941406 10 5 10 C 5.058594 10 5.117188 9.988281 5.167969 9.964844 C 5.332031 9.890625 9.167969 8.152344 9.167969 5 L 9.167969 2.867188 C 9.167969 2.429688 9.03125 2.003906 8.773438 1.648438 C 8.519531 1.296875 8.15625 1.03125 7.742188 0.890625 Z M 8.332031 5 C 8.332031 7.273438 5.699219 8.765625 5 9.121094 C 4.296875 8.765625 1.667969 7.277344 1.667969 5 L 1.667969 2.867188 C 1.667969 2.605469 1.75 2.351562 1.902344 2.136719 C 2.054688 1.925781 2.273438 1.765625 2.523438 1.683594 L 5 0.855469 L 7.476562 1.683594 C 7.726562 1.765625 7.945312 1.925781 8.097656 2.136719 C 8.25 2.351562 8.332031 2.605469 8.332031 2.867188 Z M 8.332031 5 "/>
<path style=" stroke:none;fill-rule:nonzero;fill:rgb(21.568627%,28.627451%,34.117647%);fill-opacity:1;" d="M 6.375 3.457031 L 4.628906 5.207031 L 3.695312 4.234375 C 3.65625 4.191406 3.613281 4.160156 3.5625 4.136719 C 3.511719 4.113281 3.457031 4.101562 3.402344 4.097656 C 3.34375 4.097656 3.289062 4.105469 3.238281 4.125 C 3.1875 4.144531 3.140625 4.175781 3.097656 4.214844 C 3.058594 4.253906 3.027344 4.300781 3.003906 4.351562 C 2.984375 4.402344 2.972656 4.457031 2.972656 4.511719 C 2.96875 4.566406 2.980469 4.621094 3.003906 4.675781 C 3.023438 4.726562 3.054688 4.773438 3.09375 4.8125 L 4.054688 5.8125 C 4.128906 5.886719 4.214844 5.949219 4.308594 5.992188 C 4.40625 6.035156 4.511719 6.058594 4.617188 6.0625 L 4.628906 6.0625 C 4.734375 6.0625 4.835938 6.042969 4.929688 6 C 5.027344 5.960938 5.113281 5.902344 5.1875 5.832031 L 6.964844 4.050781 C 7.003906 4.011719 7.035156 3.964844 7.054688 3.914062 C 7.078125 3.863281 7.089844 3.808594 7.089844 3.753906 C 7.089844 3.699219 7.078125 3.644531 7.058594 3.59375 C 7.035156 3.542969 7.003906 3.496094 6.964844 3.460938 C 6.925781 3.421875 6.882812 3.390625 6.832031 3.367188 C 6.78125 3.347656 6.726562 3.335938 6.671875 3.335938 C 6.617188 3.335938 6.5625 3.347656 6.511719 3.367188 C 6.460938 3.390625 6.414062 3.417969 6.375 3.457031 Z M 6.375 3.457031 "/>
</g>
</svg>
