<svg version="1.0" xmlns="http://www.w3.org/2000/svg" width="80" height="80" viewBox="0 0 60 60"><path d="M48.4 1.8C46.1 3.4 44 7.7 44 11l-.1 3.5-1.9-2.3-1.9-2.2-1.5 2.2c-.9 1.2-1.6 4.2-1.6 6.6 0 10.5 13.7 14.4 18.5 5.2 2.5-4.9 2-7.5-2.9-14.4-1-1.5-2.1-4-2.5-5.6-.4-1.8-1-2.7-1.7-2.2zm.6 3.5c0 .8 1.4 3.4 3.2 5.8 5.7 7.8 3.7 15.2-4.5 16.6-3.1.5-4 .1-6.8-2.6-2.8-2.8-3.1-3.7-2.6-7.2.7-5.1 1.2-5.6 3.5-3.6 2.1 1.9 3.2 1.3 3.2-1.8 0-3 2-8.5 3.1-8.5.5 0 .9.6.9 1.3z"/><path d="M53.2 19.9c-.7 1.8-.7 3.1-.2 3.1 1.1 0 2.5-4.8 1.7-5.6-.2-.3-.9.9-1.5 2.5zM16.4 3.1c-.3.6-.1 1.6.5 2.2 1.9 1.9 1.3 8.2-1.1 11.2-2.1 2.7-2.4 2.7-9 2.2L0 18.1v4.4c0 4.6 1.4 6.5 3.3 4.6.6-.6 3.5-1.1 6.4-1.1 9 0 13.7-3.8 14.8-11.9.3-2.3.7-5.9 1-8.1l.5-4h-4.4c-2.5 0-4.8.5-5.2 1.1zm8.1.9c-.3.5-1.9 1-3.6 1-1.6 0-2.9-.5-2.9-1 0-.6 1.6-1 3.6-1 2.1 0 3.3.4 2.9 1zm-1.2 2.7c-.7.2-1.3.9-1.3 1.4 0 .6.5.7 1 .4.6-.4 1 .7.9 2.7-.1 4-1.1 7-2.4 6.9-.6 0-1 .6-1 1.5 0 2.7-4.4 5.4-8.6 5.4-2.1 0-3.9-.5-3.9-1 0-.6-.9-1-2-1s-2-.7-2-1.5C4 20.4 5.2 20 8.9 20c6.8 0 9.2-2.2 9.9-8.8.4-4.8.6-5.2 3.1-5.1 1.4 0 2 .3 1.4.6zM3 22.5c0 1.9-.4 3.5-1 3.5-.5 0-1-1.6-1-3.5S1.5 19 2 19c.6 0 1 1.6 1 3.5z"/><path d="M17.6 21.5c-1.1.8-1.5 1.5-.9 1.5s1.6-.7 2.3-1.5c1.6-1.9 1.1-1.9-1.4 0zM10.3 34.7c-1.5.6-1.7 3.3-.3 3.3.6 0 .1.9-1 2-1.2 1.2-3.3 2-5.5 2-3.1 0-3.5.3-3.5 2.5S.4 47 3.9 47c2.2 0 4.4.6 5.1 1.5 1.6 1.9 6.4 1.9 8 0 1.7-2.1 2.7-1.9 3.3.6.8 3.1 4.1 2.1 4.5-1.4.4-3.4-1.3-5.7-4.3-5.7-1.2 0-3-.9-4-2s-1.3-2-.7-2c2.1 0 1.2-2.8-1-3.4-2.6-.6-2.8-.6-4.5.1zm6.1 6.8c.8.8 2.3 1.5 3.3 1.5 1.1 0 2.4.5 3.1 1.2 1.7 1.7 1.5 4.8-.3 4.8-.8 0-1.5-.6-1.5-1.4 0-2.6-2.1-2.9-4.4-.7-2.8 2.6-4.8 2.7-7.1.1-1.2-1.3-2.8-1.9-4.8-1.7-1.6.1-3.2-.3-3.4-.9-.2-.6.9-.9 2.6-.8 1.9.1 3.6-.5 4.7-1.7 2.1-2.3 5.7-2.5 7.8-.4zM43.7 35.6c-.4.4-.7 4.3-.7 8.6V52h17.1l-.3-8.3-.3-8.2-7.5-.3c-4.2-.1-7.9 0-8.3.4zM59 44v7H44V37h15v7z"/><path d="M47.7 39.8c-2 2.2-2.2 6.3-.5 8 1.7 1.7 6.4 1.5 8.2-.4 2.3-2.2 2-6-.6-7.8-2.9-2.1-5.1-2-7.1.2zm6.9 1.4c1.8 2.5 1 5.2-1.8 6.2-4.4 1.6-7.8-3-4.6-6.2 1.6-1.6 5.3-1.5 6.4 0z"/><path d="M49 44.1c0 .5.5.7 1 .4.6-.3 1-.8 1-1.1 0-.2-.4-.4-1-.4-.5 0-1 .5-1 1.1zM34.1 37.6c0 1.2-.8 2.4-1.6 2.8-2.5.9-1.9 6.3 1 8.2 1.4.9 2.5 2.5 2.5 3.5 0 3.3 3.9 4.9 12.2 4.9 10.6 0 9.9-1.9-.8-2.2-7.2-.2-8.9-.6-9.8-2.1-.9-1.6-.7-2.2 1.2-3.4 1.6-1.2 2.2-2.5 2.2-5.4 0-2.2-.4-3.9-.9-3.9s-1.2-1-1.4-2.3l-.4-2.2-.8 2.2C37.1 39 36.4 40 36 40c-.5 0-1.1-1-1.3-2.3-.4-2.1-.4-2.1-.6-.1zm5.7 6.6c-.3 2.9-.6 3.3-3.3 3.3-2.7 0-3-.4-3.3-3.3-.3-3.1-.2-3.2 3.3-3.2s3.6.1 3.3 3.2zM21 53.5c-1.5 1.8-.6 4.5 1.4 4.5s2.9-1.6 2.1-4c-.8-2.4-1.8-2.5-3.5-.5zm3 2.1c0 1.4-1.2 1.9-2.3.8-.9-.9.4-3.5 1.4-2.8.5.3.9 1.2.9 2z"/></svg>