<svg width="24" height="24" viewBox="0 0 24 24" fill="none" xmlns="http://www.w3.org/2000/svg"><g clip-path="url(#a)"><path d="M4 13h3v2H4v-2Zm5 2h3v-2H9v2Zm-5 4h3v-2H4v2Zm5 0h3v-2H9v2ZM4 7h3V5H4v2Zm5 0h3V5H9v2Zm-5 4h3V9H4v2Zm5 0h3V9H9v2Zm15-3v16H0V3a3 3 0 0 1 3-3h10a3 3 0 0 1 3 3v2h5a3 3 0 0 1 3 3ZM14 3a1 1 0 0 0-1-1H3a1 1 0 0 0-1 1v19h12V3Zm8 5a1 1 0 0 0-1-1h-5v15h6V8Zm-4 7h2v-2h-2v2Zm0 4h2v-2h-2v2Zm0-8h2V9h-2v2Z" fill="#374957"/></g><defs><clipPath id="a"><path fill="#fff" d="M0 0h24v24H0z"/></clipPath></defs></svg>