<svg width="24" height="24" viewBox="0 0 24 24" fill="none" xmlns="http://www.w3.org/2000/svg"><g clip-path="url(#a)" fill="#374957"><path d="M8 0H3a3 3 0 0 0-3 3v5h3l-.02 3 2 .01L5 8h3V4.98L11 5l.01-2L8 2.98V0ZM6 6H2V3a1 1 0 0 1 1-1h3v4ZM21 0h-5v3l-3-.02v2L16 5v3h3.02L19 11l2 .01.02-3.01H24V3a3 3 0 0 0-3-3Zm1 6h-4V2h3a1 1 0 0 1 1 1v3ZM21.02 13h-2L19 16h-3v3.02L13 19v2l3 .02V24h5a3 3 0 0 0 3-3v-5h-3l.02-3Zm.98 8a1 1 0 0 1-1 1h-3v-4h4v3ZM8 16H4.99L5 13H3l-.02 3H0v5a3 3 0 0 0 3 3h5v-3l3 .02.01-2L8 19v-3Zm-2 6H3a1 1 0 0 1-1-1v-3h4v4Z"/></g><defs><clipPath id="a"><path fill="#fff" d="M0 0h24v24H0z"/></clipPath></defs></svg>