<?xml version="1.0" standalone="no"?>
<!DOCTYPE svg PUBLIC "-//W3C//DTD SVG 20010904//EN"
 "http://www.w3.org/TR/2001/REC-SVG-20010904/DTD/svg10.dtd">
<svg version="1.0" xmlns="http://www.w3.org/2000/svg"
 width="170.000000pt" height="170.000000pt" viewBox="0 0 170.000000 170.000000"
 preserveAspectRatio="xMidYMid meet">

<g transform="translate(0.000000,170.000000) scale(0.100000,-0.100000)"
fill="#000000" stroke="none">
<path d="M823 1459 c-34 -34 -6 -69 55 -69 115 0 252 -61 348 -155 97 -96 150
-207 163 -339 7 -76 25 -101 59 -80 21 14 20 97 -3 188 -52 204 -227 381 -436
440 -82 23 -171 30 -186 15z"/>
<path d="M442 1348 c-261 -80 -219 -461 86 -780 313 -328 730 -399 816 -140
32 95 30 96 -134 163 -80 32 -151 58 -159 59 -8 0 -40 -25 -72 -55 -32 -30
-66 -55 -77 -55 -30 0 -136 75 -211 149 -73 73 -151 182 -151 213 0 11 25 45
55 77 30 32 55 64 55 72 -1 27 -117 302 -131 309 -8 4 -42 -1 -77 -12z"/>
<path d="M814 1307 c-15 -39 -1 -50 80 -64 190 -32 317 -160 349 -350 12 -77
13 -78 42 -78 l30 0 -1 70 c-5 218 -197 413 -426 432 -56 5 -69 3 -74 -10z"/>
<path d="M818 1164 c-5 -4 -8 -18 -8 -30 0 -18 7 -25 28 -29 82 -16 116 -28
151 -51 64 -42 92 -94 116 -216 4 -21 11 -28 30 -28 34 0 43 23 33 88 -16 103
-83 194 -180 243 -43 22 -157 38 -170 23z"/>
</g>
</svg>
